<svg xmlns="http://www.w3.org/2000/svg" version="1.1" xmlns:xlink="http://www.w3.org/1999/xlink" xmlns:svgjs="http://svgjs.dev/svgjs" width="1000" height="1125" viewBox="0 0 1000 1125"><g transform="matrix(1,0,0,1,0,0)"><svg viewBox="0 0 320 360" data-background-color="#ffffff" preserveAspectRatio="xMidYMid meet" height="1125" width="1000" xmlns="http://www.w3.org/2000/svg" xmlns:xlink="http://www.w3.org/1999/xlink"><g id="tight-bounds" transform="matrix(1,0,0,1,0,0)"><svg viewBox="0 0 320 360" height="360" width="320"><g><svg></svg></g><g><svg viewBox="0 0 320 360" height="360" width="320"><g><path xmlns="http://www.w3.org/2000/svg" d="M320 141.95l-19.957-19.957v-28.224l-53.812-53.812h-28.223l-19.958-19.957h-76.1l-19.957 19.957h-28.224l-53.812 53.812v28.224l-19.957 19.957v76.104l19.957 19.958v28.223l53.816 53.808h28.224l19.957 19.957h76.104l19.958-19.957h28.223l53.812-53.812v-28.224l19.949-19.957zM244.374 44.437l51.189 51.189v21.887l-73.076-73.076zM295.563 123.849v112.306l-79.408 79.408h-112.306l-79.412-79.412v-112.302l79.412-79.412h112.306zM123.807 24.48h72.39l15.478 15.477h-103.346zM24.437 95.626l51.189-51.189h21.887l-73.076 73.076zM4.484 216.197v-72.394l15.477-15.478v103.342zM75.626 315.563l-51.189-51.189v-21.887l73.076 73.076zM196.197 335.52h-72.39l-15.478-15.477h103.342zM295.563 264.374l-51.189 51.189h-21.887l73.076-73.076zM315.52 216.197l-15.477 15.478v-103.346l15.477 15.478z" fill="#0e0e0e" fill-rule="nonzero" stroke="none" stroke-width="1" stroke-linecap="butt" stroke-linejoin="miter" stroke-miterlimit="10" stroke-dasharray="" stroke-dashoffset="0" font-family="none" font-weight="none" font-size="none" text-anchor="none" style="mix-blend-mode: normal" data-fill-palette-color="tertiary"></path></g><g transform="matrix(1,0,0,1,56.000000000000014,160.23701383450796)"><svg viewBox="0 0 207.99999999999997 39.525972330984075" height="39.525972330984075" width="207.99999999999997"><g><svg viewBox="0 0 207.99999999999997 39.525972330984075" height="39.525972330984075" width="207.99999999999997"><g><svg viewBox="0 0 208.00000000000003 39.52597233098408" height="39.525972330984075" width="207.99999999999997"><g><svg viewBox="0 0 208.00000000000003 39.52597233098408" height="39.52597233098408" width="208.00000000000003"><g><svg viewBox="0 0 208.00000000000003 39.52597233098408" height="39.52597233098408" width="208.00000000000003"><g><svg viewBox="0 0 208.00000000000003 39.52597233098408" height="39.52597233098408" width="208.00000000000003"><g transform="matrix(1,0,0,1,0,0)"><svg width="208.00000000000003" viewBox="1.4900000095367432 -35.54999923706055 187.04998779296875 35.54999923706055" height="39.52597233098408" data-palette-color="#130912"><path d="M15.8 0L1.49 0 1.49-4 5.32-4.74 5.32-30.79 1.49-31.52 1.49-35.55 18.14-35.55Q22.17-35.55 25.06-34.3 27.95-33.06 29.48-30.71 31.01-28.37 31.01-25.1L31.01-25.1Q31.01-21.97 29.49-19.58 27.98-17.19 25.26-15.83 22.53-14.48 18.95-14.45L18.95-14.45 11.96-14.43 11.96-4.74 15.8-4 15.8 0ZM32.57 0L24.49 0 18.09-15.87 24.19-17.11 29.66-4.69 32.57-4.05 32.57 0ZM11.96-30.42L11.96-19.56 17.92-19.56Q21.22-19.56 22.8-20.91 24.39-22.27 24.39-24.85L24.39-24.85Q24.39-27.39 22.83-28.91 21.26-30.42 18.14-30.42L18.14-30.42 11.96-30.42ZM50.05 0L35.74 0 35.74-4 39.57-4.74 39.57-30.79 35.74-31.52 35.74-35.55 50.05-35.55 50.05-31.52 46.21-30.79 46.21-4.74 50.05-4 50.05 0ZM67.33 0L53.02 0 53.02-4 56.86-4.74 56.86-30.79 53.02-31.52 53.02-35.55 69.67-35.55Q73.7-35.55 76.59-34.3 79.49-33.06 81.01-30.71 82.54-28.37 82.54-25.1L82.54-25.1Q82.54-21.97 81.03-19.58 79.51-17.19 76.79-15.83 74.07-14.48 70.48-14.45L70.48-14.45 63.5-14.43 63.5-4.74 67.33-4 67.33 0ZM84.1 0L76.02 0 69.62-15.87 75.73-17.11 81.2-4.69 84.1-4.05 84.1 0ZM63.5-30.42L63.5-19.56 69.45-19.56Q72.75-19.56 74.34-20.91 75.92-22.27 75.92-24.85L75.92-24.85Q75.92-27.39 74.36-28.91 72.8-30.42 69.67-30.42L69.67-30.42 63.5-30.42ZM108.56 0L94.23 0 94.23-4 98.06-4.74 98.06-30.44 91.25-30.44 90.79-26.05 85.78-26.05 85.78-35.55 117.03-35.55 117.03-26.05 112-26.05 111.54-30.44 104.7-30.44 104.7-4.74 108.56-4 108.56 0ZM135.29 0L119.91 0 119.91-4 123.77-4.81 123.77-30.71 119.91-31.52 119.91-35.55 123.77-35.55 135.17-35.55Q139.93-35.55 143.53-33.3 147.13-31.05 149.16-27.12 151.19-23.19 151.19-18.09L151.19-18.09 151.19-17.43Q151.19-12.4 149.2-8.46 147.21-4.52 143.63-2.26 140.05 0 135.29 0L135.29 0ZM130.41-30.42L130.41-5.1 134.95-5.1Q138-5.1 140.13-6.71 142.25-8.33 143.39-11.11 144.52-13.89 144.52-17.43L144.52-17.43 144.52-18.14Q144.52-21.73 143.39-24.5 142.25-27.27 140.13-28.85 138-30.42 134.95-30.42L134.95-30.42 130.41-30.42ZM174.43 0L167.79 0 156.24-31.13 153.16-31.52 153.16-35.55 166.69-35.55 166.69-31.52 163.46-31.01 170.64-9.69 171.25-7.57 171.4-7.57 172.01-9.64 179.24-31.03 175.52-31.52 175.52-35.55 188.54-35.55 188.54-31.52 185.39-31.13 174.43 0Z" opacity="1" transform="matrix(1,0,0,1,0,0)" fill="#130912" class="undefined-text-0" data-fill-palette-color="primary" id="text-0"></path></svg></g></svg></g></svg></g></svg></g><g></g></svg></g></svg></g></svg></g></svg></g><defs></defs></svg><rect width="320" height="360" fill="none" stroke="none" visibility="hidden"></rect></g></svg></g></svg>